<?xml version="1.0" encoding="UTF-8"?>
<svg id="_图层_1" data-name=" 图层 1" xmlns="http://www.w3.org/2000/svg" viewBox="0 0 406.66 459.87">
  <defs>
    <style>
      .cls-1 {
        fill: none;
        stroke: #26588a;
        stroke-miterlimit: 10;
        stroke-width: 2px;
      }

      .cls-2 {
        fill: #26588a;
      }
    </style>
  </defs>
  <path class="cls-2" d="M291.97,86.36c-3.9-1.88-5.45-9.12-9.49-10.75-.68-.27-1.41-.38-2.19-.38-3.16,0-7,1.82-10.18,1.82-.68,0-1.32-.08-1.93-.28-4.11-1.36-6.57-8.34-10.79-9.43-.42-.11-.86-.16-1.3-.16-3.64,0-8.02,3.23-11.69,3.23-.35,0-.69-.03-1.03-.09-4.24-.82-7.58-7.42-11.91-7.97-.2-.03-.4-.04-.6-.04-3.07,0-8.79,3.92-11.55,4.1-.97.07-1.49.09-1.51.1v2.58c.15,0,.29,0,.44,0,.33,0,.39.04.71.04.13,0,.52.01.65,0,2.07-.36,4.04-1.62,5.96-2.69,1.87-1.05,3.81-2.13,5.29-2.13.12,0,.24,0,.35.02,1.57.2,3.32,1.87,5.01,3.49,2.03,1.94,4.14,3.95,6.78,4.46.45.09.92.13,1.41.13,2.22,0,4.46-.9,6.61-1.77,1.79-.72,3.65-1.47,5.07-1.47.3,0,.56.03.8.09,1.53.4,3.04,2.28,4.51,4.1,1.77,2.19,3.6,4.45,6.16,5.3.78.26,1.61.38,2.55.38,1.85,0,3.75-.49,5.6-.97,1.67-.43,3.25-.84,4.57-.84.57,0,1.04.08,1.44.24,1.46.59,2.72,2.65,3.94,4.64,1.47,2.4,3,4.88,5.43,6.05l.89-1.81Z"/>
  <line class="cls-1" x1="214.6" y1="69.02" x2="214.6" y2="56.06"/>
  <path class="cls-2" d="M190.16,62.42c1.58-.1,3.62,1.2,5.6,2.46,2.37,1.52,4.82,3.09,7.5,3.08.15,0,.29,0,.44-.02,2.56-.17,4.88-1.68,7.13-3.14,1.8-1.17,3.66-2.38,5.14-2.48.12,0,.24-.02.35,0,1.58.1,3.44,1.65,5.23,3.15,2.15,1.8,4.39,3.67,7.06,4,.45.06.93.07,1.42.04,2.22-.15,4.39-1.19,6.48-2.21,1.74-.84,3.54-1.71,4.96-1.8.3-.02.56,0,.8.04,1.55.3,3.18,2.07,4.77,3.79,1.91,2.07,3.89,4.2,6.5,4.88.8.21,1.63.27,2.57.21,1.85-.12,3.71-.74,5.52-1.34,1.64-.54,3.19-1.05,4.5-1.14.57-.04,1.04.01,1.45.14,1.5.49,2.89,2.46,4.24,4.37,1.63,2.3,3.32,4.67,5.82,5.68,1.16.46,2.51.63,4.13.53,1.34-.09,2.71-.35,4.03-.61,1.26-.24,2.44-.47,3.53-.55s1.92.03,2.52.31c1.42.68,2.54,2.81,3.64,4.87,1.32,2.49,2.68,5.06,5.05,6.39s5.29,1.15,8.1.97c2.33-.14,4.72-.29,6.03.56s2.16,3.11,2.98,5.29c.99,2.64,2.01,5.37,4.18,6.99s5.09,1.82,7.9,2.01c2.33.16,4.73.33,5.91,1.33,1.19,1.01,1.74,3.36,2.26,5.63.63,2.74,1.29,5.59,3.24,7.47,1.94,1.89,4.8,2.46,7.57,3.01,2.29.46,4.65.93,5.69,2.1,1.05,1.15,1.28,3.55,1.5,5.87.28,2.81.56,5.72,2.24,7.84s4.43,3.06,7.1,3.98c2.21.76,4.49,1.53,5.38,2.83.89,1.28.8,3.69.72,6.02-.1,2.82-.2,5.74,1.19,8.07,1.38,2.32,3.99,3.62,6.51,4.88,2.09,1.04,4.25,2.12,4.96,3.52.7,1.39.3,3.76-.09,6.05-.48,2.79-.97,5.67.09,8.16,1.06,2.48,3.46,4.12,5.78,5.7,1.93,1.31,3.94,2.67,4.45,4.16.51,1.46-.21,3.75-.91,5.97-.84,2.7-1.72,5.49-1,8.11.71,2.59,2.87,4.54,4.96,6.41,1.74,1.57,3.54,3.18,3.85,4.73.3,1.51-.72,3.69-1.7,5.79-1.2,2.57-2.45,5.21-2.09,7.92.36,2.66,2.24,4.87,4.05,7.01,1.52,1.78,3.09,3.63,3.19,5.22s-1.2,3.62-2.47,5.6c-1.52,2.36-3.09,4.81-3.09,7.48,0,2.73,1.59,5.19,3.12,7.57,1.25,1.95,2.55,3.97,2.45,5.51-.11,1.58-1.68,3.42-3.19,5.2-1.82,2.14-3.71,4.36-4.06,7.02-.36,2.69.88,5.34,2.07,7.91.98,2.11,2,4.29,1.69,5.8-.32,1.54-2.11,3.16-3.86,4.72-2.09,1.87-4.27,3.82-4.97,6.41-.72,2.61.15,5.4.99,8.1.69,2.22,1.4,4.52.89,5.98-.52,1.48-2.52,2.83-4.45,4.15-2.33,1.58-4.74,3.21-5.8,5.7-1.07,2.5-.57,5.37-.11,8.16.39,2.3.79,4.67.08,6.06-.71,1.4-2.87,2.48-4.96,3.52-2.52,1.26-5.13,2.56-6.51,4.88-1.39,2.33-1.28,5.25-1.18,8.07.08,2.33.17,4.74-.71,6.02-.89,1.29-3.16,2.07-5.36,2.83-2.66.92-5.43,1.86-7.1,3.99s-1.95,5.03-2.22,7.84c-.23,2.32-.45,4.72-1.49,5.88s-3.4,1.64-5.68,2.1c-2.77.57-5.63,1.15-7.56,3.04s-2.59,4.73-3.22,7.48c-.52,2.27-1.05,4.63-2.25,5.64-1.19,1.01-3.58,1.18-5.9,1.36-2.82.2-5.74.41-7.9,2.04-2.16,1.62-3.18,4.35-4.15,7-.81,2.19-1.65,4.45-2.96,5.31-.56.37-1.36.57-2.45.64s-2.29,0-3.57-.07c-1.35-.08-2.74-.16-4.07-.07-1.63.11-2.94.46-4.03,1.07-2.35,1.33-3.71,3.91-5.02,6.4-1.09,2.07-2.21,4.21-3.62,4.89-.38.19-.85.3-1.42.34-1.32.09-2.92-.22-4.62-.53-1.88-.36-3.82-.72-5.65-.6-.94.06-1.76.24-2.52.55-2.5,1.02-4.17,3.39-5.79,5.7-1.35,1.91-2.74,3.89-4.23,4.39-.24.08-.5.12-.79.14-1.43.1-3.32-.53-5.16-1.13-2.21-.72-4.5-1.47-6.71-1.33-.49.03-.96.1-1.4.22-2.6.68-4.57,2.83-6.47,4.9-1.58,1.73-3.21,3.51-4.77,3.82-.11.02-.23.04-.35.04-1.49.1-3.48-.85-5.42-1.77-2.42-1.15-4.92-2.34-7.48-2.17-.15,0-.29.02-.44.04-2.66.35-4.88,2.23-7.03,4.05-1.78,1.51-3.63,3.08-5.22,3.18s-3.62-1.2-5.6-2.46c-2.37-1.52-4.82-3.09-7.5-3.08-.15,0-.29,0-.44.02-2.56.17-4.88,1.68-7.13,3.14-1.8,1.17-3.66,2.38-5.14,2.48-.12,0-.24.02-.35,0-1.58-.1-3.44-1.65-5.23-3.15-2.15-1.8-4.39-3.67-7.06-4-.45-.06-.93-.07-1.42-.04-2.22.15-4.39,1.19-6.48,2.21-1.74.84-3.54,1.71-4.96,1.8-.3.02-.56,0-.8-.04-1.54-.3-3.18-2.07-4.77-3.79-1.91-2.07-3.89-4.2-6.5-4.88-.8-.21-1.63-.27-2.57-.21-1.85.12-3.72.74-5.52,1.34-1.64.54-3.19,1.05-4.5,1.14-.57.04-1.04-.01-1.45-.14-1.5-.49-2.89-2.46-4.24-4.37-1.63-2.3-3.32-4.67-5.82-5.68-1.16-.46-2.51-.63-4.13-.53-1.34.09-2.71.35-4.04.61-1.26.24-2.44.47-3.53.55s-1.92-.03-2.52-.31c-1.42-.68-2.54-2.81-3.64-4.87-1.32-2.49-2.68-5.06-5.05-6.39-2.36-1.33-5.29-1.15-8.1-.97-2.33.14-4.72.29-6.03-.56s-2.16-3.11-2.98-5.29c-.99-2.64-2.01-5.37-4.18-6.99s-5.09-1.82-7.9-2.01c-2.33-.16-4.73-.33-5.91-1.33-1.19-1.01-1.74-3.36-2.26-5.63-.63-2.74-1.29-5.59-3.24-7.47-1.94-1.89-4.8-2.46-7.57-3.01-2.29-.46-4.65-.93-5.69-2.1-1.05-1.15-1.28-3.55-1.5-5.87-.28-2.81-.56-5.72-2.24-7.84s-4.43-3.06-7.1-3.98c-2.21-.76-4.49-1.53-5.38-2.83-.89-1.28-.8-3.69-.72-6.02.1-2.82.2-5.74-1.19-8.07-1.38-2.32-3.99-3.62-6.51-4.88-2.09-1.04-4.25-2.12-4.96-3.52-.7-1.39-.3-3.76.09-6.05.48-2.79.97-5.67-.09-8.16-1.06-2.48-3.46-4.12-5.78-5.7-1.93-1.31-3.94-2.67-4.45-4.16-.51-1.46.21-3.75.91-5.97.84-2.7,1.72-5.49,1-8.11-.71-2.59-2.87-4.54-4.96-6.41-1.74-1.57-3.54-3.18-3.85-4.73-.3-1.51.72-3.69,1.7-5.79,1.2-2.57,2.45-5.21,2.09-7.92-.36-2.66-2.24-4.87-4.05-7.01-1.52-1.78-3.09-3.63-3.19-5.22s1.2-3.62,2.47-5.6c1.52-2.36,3.09-4.81,3.09-7.48,0-2.73-1.59-5.19-3.12-7.57-1.25-1.95-2.55-3.97-2.45-5.51.11-1.58,1.68-3.42,3.19-5.2,1.82-2.14,3.71-4.36,4.06-7.02.36-2.69-.88-5.34-2.07-7.91-.98-2.11-2-4.29-1.69-5.8.32-1.54,2.11-3.16,3.86-4.72,2.1-1.87,4.27-3.82,4.97-6.41.72-2.61-.15-5.4-.99-8.1-.69-2.22-1.4-4.52-.89-5.98.52-1.48,2.52-2.83,4.45-4.15,2.33-1.58,4.74-3.21,5.8-5.7,1.07-2.5.57-5.37.11-8.16-.39-2.3-.79-4.67-.08-6.06.71-1.4,2.87-2.48,4.96-3.52,2.52-1.26,5.13-2.56,6.51-4.88,1.39-2.33,1.28-5.25,1.18-8.07-.08-2.33-.17-4.74.71-6.02.89-1.29,3.16-2.07,5.36-2.83,2.66-.92,5.43-1.86,7.1-3.99,1.67-2.13,1.95-5.03,2.22-7.84.23-2.32.45-4.72,1.49-5.88,1.05-1.16,3.4-1.64,5.68-2.1,2.77-.57,5.63-1.15,7.56-3.04s2.59-4.73,3.22-7.48c.52-2.27,1.05-4.63,2.25-5.64,1.19-1.01,3.58-1.18,5.9-1.36,2.82-.2,5.74-.41,7.9-2.04,2.16-1.62,3.18-4.35,4.15-7,.81-2.19,1.65-4.45,2.96-5.31.56-.37,1.36-.57,2.45-.64s2.29,0,3.57.07c1.35.08,2.74.16,4.08.07,1.63-.11,2.94-.46,4.03-1.07,2.35-1.33,3.71-3.91,5.02-6.4,1.09-2.07,2.21-4.21,3.62-4.89.38-.19.85-.3,1.42-.34,1.32-.09,2.92.22,4.62.53,1.88.36,3.82.72,5.65.6.94-.06,1.76-.24,2.52-.55,2.5-1.02,4.17-3.39,5.79-5.7,1.35-1.91,2.74-3.89,4.23-4.39.24-.08.5-.12.79-.14,1.43-.1,3.32.53,5.16,1.13,2.21.72,4.5,1.47,6.71,1.33.49-.03.96-.1,1.4-.22,2.6-.68,4.57-2.83,6.47-4.9,1.58-1.73,3.21-3.51,4.77-3.82.11-.02.23-.04.35-.04,1.49-.1,3.48.85,5.42,1.77,2.42,1.15,4.92,2.34,7.48,2.17.15,0,.29-.02.44-.04,2.66-.35,4.88-2.23,7.03-4.05,1.78-1.51,3.63-3.08,5.22-3.18M190.03,60.42c-4.36.29-8.09,6.68-12.38,7.24l-.32.02c-4.07.27-8.88-4.21-12.9-3.94-.2.01-.4.04-.6.08-4.28.84-7.18,7.65-11.35,8.74-.34.08-.67.13-1.02.16-3.66.24-8.25-2.69-11.88-2.45-.45.03-.87.11-1.29.25-4.14,1.38-6.14,8.51-10.14,10.13-.59.24-1.23.36-1.91.41-3.17.21-7.12-1.35-10.28-1.14-.78.05-1.5.21-2.16.52-3.92,1.89-4.99,9.22-8.76,11.35-.91.51-1.99.74-3.17.82-2.42.16-5.23-.3-7.65-.14-1.29.09-2.46.34-3.41.97-3.64,2.38-3.75,9.78-7.21,12.39-3.47,2.61-10.62.65-13.91,3.47-3.3,2.83-2.46,10.19-5.56,13.21-3.11,3.03-10.44,2.02-13.34,5.24-2.9,3.23-1.12,10.42-3.8,13.82-2.69,3.41-10.09,3.35-12.55,6.93s.26,10.47-1.96,14.2c-2.22,3.73-9.56,4.65-11.53,8.51s1.63,10.33-.08,14.34c-1.7,3.98-8.86,5.86-10.3,9.98-1.43,4.08,3,10.02,1.84,14.22-1.16,4.18-7.99,7-8.87,11.26-.87,4.24,4.32,9.51,3.74,13.84-.58,4.28-6.98,8-7.28,12.35-.28,4.31,5.56,8.84,5.56,13.21,0,4.31-5.85,8.85-5.55,13.22s6.69,8.08,7.26,12.37c.58,4.33-4.61,9.61-3.76,13.83.87,4.28,7.71,7.11,8.85,11.28,1.15,4.2-3.28,10.13-1.87,14.22,1.43,4.11,8.59,6,10.29,9.99,1.7,4.01-1.9,10.47.06,14.34,1.97,3.88,9.32,4.79,11.53,8.51,2.22,3.74-.49,10.63,1.98,14.2,2.46,3.57,9.87,3.51,12.56,6.91,2.69,3.41.92,10.59,3.83,13.82,2.91,3.22,10.24,2.18,13.36,5.2s2.29,10.38,5.6,13.2c3.3,2.81,10.44.83,13.92,3.42s3.61,9.99,7.27,12.35c3.64,2.36,10.46-.53,14.25,1.6,3.78,2.11,4.87,9.44,8.8,11.32,1.03.49,2.22.59,3.51.51,2.42-.16,5.14-.99,7.56-1.15,1.18-.08,2.28,0,3.25.39,4.02,1.62,6.04,8.74,10.18,10.1.7.22,1.43.29,2.21.23,3.15-.21,6.86-2.28,10.04-2.49.68-.05,1.32,0,1.94.15,4.19,1.08,7.11,7.89,11.39,8.69.43.08.87.1,1.31.07,3.63-.24,7.79-3.76,11.45-4,.35-.02.69-.02,1.03.02,4.29.54,8.06,6.9,12.41,7.16.2.02.4.01.6,0,4.02-.27,8.2-5.35,12.26-5.62l.32-.02c4.31-.02,8.86,5.82,13.23,5.53s8.09-6.68,12.38-7.24l.32-.02c4.07-.27,8.88,4.21,12.9,3.94.2-.01.4-.04.6-.08,4.28-.84,7.18-7.65,11.35-8.74.34-.08.67-.13,1.02-.16,3.66-.24,8.25,2.69,11.88,2.45.45-.03.87-.11,1.29-.25,4.14-1.38,6.14-8.51,10.14-10.13.59-.24,1.23-.36,1.91-.41,3.17-.21,7.12,1.35,10.28,1.14.78-.05,1.5-.21,2.16-.52,3.92-1.89,4.99-9.22,8.76-11.35.91-.51,1.99-.74,3.17-.82,2.42-.16,5.23.3,7.65.14,1.29-.09,2.46-.34,3.41-.97,3.64-2.38,3.75-9.78,7.21-12.39,3.47-2.61,10.62-.65,13.91-3.47,3.3-2.83,2.46-10.19,5.56-13.21,3.11-3.03,10.44-2.02,13.34-5.24,2.9-3.23,1.12-10.42,3.8-13.82,2.69-3.41,10.09-3.35,12.55-6.93,2.46-3.58-.26-10.47,1.96-14.2,2.22-3.73,9.56-4.65,11.53-8.51s-1.63-10.33.08-14.34c1.7-3.98,8.86-5.86,10.3-9.98,1.43-4.08-3-10.02-1.84-14.22,1.16-4.18,7.99-7,8.87-11.26.87-4.24-4.32-9.51-3.74-13.84.58-4.28,6.98-8,7.28-12.35.28-4.31-5.56-8.84-5.56-13.21,0-4.31,5.85-8.85,5.55-13.22s-6.69-8.08-7.26-12.37c-.58-4.33,4.61-9.61,3.76-13.83-.87-4.28-7.71-7.11-8.85-11.28-1.15-4.2,3.28-10.13,1.87-14.22-1.43-4.11-8.59-6-10.29-9.99-1.7-4.01,1.9-10.47-.06-14.34-1.97-3.88-9.32-4.79-11.53-8.51-2.22-3.74.49-10.63-1.98-14.2s-9.87-3.51-12.56-6.91c-2.69-3.41-.92-10.59-3.83-13.82s-10.24-2.18-13.36-5.2-2.29-10.38-5.6-13.2c-3.3-2.81-10.44-.83-13.92-3.42-3.48-2.59-3.61-9.99-7.27-12.35-3.64-2.36-10.46.53-14.25-1.6-3.78-2.11-4.87-9.44-8.8-11.32-1.03-.49-2.22-.59-3.51-.51-2.42.16-5.14.99-7.56,1.15-1.18.08-2.28,0-3.25-.39-4.02-1.62-6.04-8.74-10.18-10.1-.7-.22-1.43-.29-2.21-.23-3.15.21-6.86,2.28-10.04,2.49-.68.05-1.32,0-1.94-.15-4.19-1.08-7.11-7.89-11.39-8.69-.43-.08-.87-.1-1.31-.07-3.63.24-7.79,3.76-11.45,4-.35.02-.69.02-1.03-.02-4.29-.54-8.06-6.9-12.41-7.16-.2-.02-.4-.01-.6,0-4.02.27-8.2,5.35-12.26,5.62l-.32.02c-4.31.02-8.86-5.82-13.23-5.53h0Z"/>
  <path class="cls-1" d="M205.86,56.06v-22.07l-11.99-6.92c-1.03.64-2.24,1-3.53,1-3.74,0-6.77-3.03-6.77-6.77s3.03-6.77,6.77-6.77,6.77,3.03,6.77,6.77c0,.05,0,.11-.01.16l10.95,6.32,6.84-15.85c-.9-1.15-1.44-2.6-1.44-4.17,0-3.73,3.03-6.76,6.76-6.76s6.77,3.03,6.77,6.76c0,3.53-2.69,6.42-6.14,6.73l-6.24,15.37v26.2h-.61"/>
  <rect class="cls-1" x="214.6" y="67.41" width="3.77" height=".75"/>
  <line class="cls-1" x1="205.86" y1="50.94" x2="214.6" y2="50.94"/>
  <line class="cls-1" x1="205.86" y1="45.95" x2="214.6" y2="45.95"/>
  <line class="cls-1" x1="205.86" y1="40.97" x2="214.6" y2="40.97"/>
  <line class="cls-1" x1="205.86" y1="35.98" x2="214.6" y2="35.98"/>
  <line class="cls-1" x1="196.32" y1="28.63" x2="200.14" y2="22.25"/>
  <line class="cls-1" x1="200.8" y1="31.82" x2="204.62" y2="25.44"/>
  <line class="cls-1" x1="209.67" y1="23.79" x2="216.62" y2="26.46"/>
  <line class="cls-1" x1="211.12" y1="19.19" x2="218.07" y2="21.86"/>
  <line class="cls-1" x1="213.14" y1="14.59" x2="220.09" y2="17.26"/>
</svg>