<?xml version="1.0" encoding="UTF-8"?>
<svg id="_图层_1" data-name="图层 1" xmlns="http://www.w3.org/2000/svg" viewBox="0 0 407.54 400.24">
  <defs>
    <style>
      .cls-1 {
        fill: #26588a;
      }
    </style>
  </defs>
  <path class="cls-1" d="M203.77,2c1.58,0,3.53,1.44,5.42,2.83,2.26,1.67,4.6,3.4,7.28,3.57.15,0,.29.01.44.01,2.57,0,4.98-1.35,7.32-2.66,1.87-1.05,3.81-2.13,5.29-2.13.12,0,.24,0,.35.02,1.57.2,3.32,1.87,5.01,3.49,2.03,1.94,4.14,3.95,6.78,4.46.45.09.92.13,1.41.13,2.22,0,4.46-.9,6.61-1.77,1.79-.72,3.65-1.47,5.07-1.47.3,0,.56.03.8.09,1.53.4,3.04,2.28,4.51,4.1,1.77,2.19,3.6,4.45,6.16,5.3.78.26,1.61.38,2.55.38,1.85,0,3.75-.49,5.6-.97,1.67-.43,3.25-.84,4.57-.84.57,0,1.04.08,1.44.24,1.46.59,2.72,2.65,3.94,4.64,1.47,2.4,3,4.88,5.43,6.05,1.13.54,2.46.8,4.09.8,1.34,0,2.73-.17,4.06-.34,1.27-.16,2.47-.31,3.56-.31s1.91.16,2.49.48c1.37.77,2.35,2.97,3.31,5.1,1.15,2.57,2.34,5.23,4.61,6.71,2.27,1.48,5.2,1.5,8.02,1.51,2.33.01,4.73.02,5.98.96,1.25.94,1.95,3.25,2.62,5.48.81,2.7,1.65,5.49,3.71,7.25,2.06,1.76,4.96,2.15,7.75,2.53,2.31.31,4.7.64,5.81,1.72,1.12,1.09,1.51,3.47,1.88,5.77.45,2.78.92,5.66,2.74,7.67,1.81,2.01,4.63,2.77,7.35,3.51,2.25.61,4.58,1.24,5.54,2.47.97,1.22,1.04,3.63,1.11,5.96.09,2.82.18,5.74,1.71,7.97,1.53,2.23,4.22,3.35,6.82,4.44,2.15.9,4.38,1.83,5.18,3.18.8,1.34.55,3.73.32,6.05-.29,2.81-.58,5.71.65,8.13,1.22,2.41,3.74,3.88,6.17,5.3,2.02,1.18,4.1,2.4,4.72,3.84.61,1.43.05,3.77-.49,6.03-.66,2.75-1.34,5.59-.45,8.15.89,2.54,3.18,4.34,5.39,6.07,1.84,1.44,3.75,2.93,4.16,4.45.41,1.49-.46,3.73-1.3,5.9-1.02,2.64-2.08,5.36-1.54,8.03.54,2.63,2.56,4.72,4.52,6.73,1.63,1.68,3.32,3.41,3.53,4.98.2,1.53-.96,3.63-2.08,5.66-1.37,2.48-2.79,5.04-2.61,7.76.18,2.68,1.91,5.01,3.58,7.26,1.4,1.88,2.84,3.83,2.84,5.42s-1.44,3.53-2.84,5.42c-1.67,2.25-3.4,4.59-3.58,7.26-.18,2.72,1.24,5.28,2.61,7.76,1.12,2.03,2.28,4.13,2.08,5.66-.21,1.57-1.9,3.3-3.53,4.98-1.96,2.01-3.99,4.1-4.52,6.73-.54,2.66.52,5.39,1.54,8.03.84,2.17,1.71,4.41,1.3,5.9-.42,1.52-2.32,3.01-4.16,4.45-2.21,1.73-4.51,3.53-5.39,6.07-.89,2.56-.21,5.4.45,8.15.54,2.26,1.1,4.6.49,6.03-.62,1.44-2.7,2.66-4.72,3.84-2.43,1.42-4.94,2.89-6.17,5.3-1.23,2.42-.93,5.32-.65,8.13.24,2.32.48,4.71-.32,6.05-.8,1.35-3.03,2.28-5.18,3.18-2.6,1.09-5.29,2.21-6.82,4.44-1.54,2.23-1.63,5.15-1.71,7.97-.07,2.33-.15,4.74-1.11,5.96-.97,1.23-3.29,1.86-5.54,2.47-2.72.74-5.54,1.5-7.35,3.51-1.81,2.01-2.28,4.89-2.74,7.67-.38,2.3-.76,4.68-1.88,5.77-1.12,1.09-3.5,1.41-5.81,1.72-2.8.38-5.69.77-7.75,2.53-2.06,1.76-2.9,4.55-3.71,7.25-.67,2.23-1.36,4.55-2.62,5.48-1.25.93-3.65.94-5.98.96-2.83.01-5.75.03-8.02,1.51-2.26,1.47-3.46,4.13-4.61,6.71-.95,2.13-1.94,4.33-3.31,5.1-.58.33-1.39.48-2.49.48s-2.29-.15-3.56-.31c-1.34-.17-2.72-.34-4.06-.34-1.63,0-2.96.26-4.09.8-2.43,1.17-3.96,3.65-5.43,6.05-1.22,1.99-2.48,4.05-3.94,4.64-.39.16-.87.24-1.44.24-1.32,0-2.9-.41-4.57-.84-1.85-.48-3.76-.97-5.6-.97-.94,0-1.77.12-2.55.38-2.56.85-4.39,3.11-6.16,5.3-1.47,1.82-2.99,3.7-4.51,4.1-.24.06-.51.09-.8.09-1.43,0-3.28-.75-5.07-1.47-2.16-.87-4.39-1.77-6.61-1.77-.49,0-.96.04-1.41.13-2.64.51-4.75,2.52-6.78,4.46-1.69,1.62-3.44,3.29-5.01,3.49-.11.01-.23.02-.35.02-1.49,0-3.42-1.08-5.29-2.13-2.34-1.31-4.75-2.66-7.32-2.66-.15,0-.29,0-.44.01-2.68.17-5.02,1.9-7.28,3.57-1.88,1.39-3.83,2.83-5.42,2.83s-3.53-1.44-5.42-2.83c-2.26-1.67-4.6-3.4-7.28-3.57-.15,0-.29-.01-.44-.01-2.57,0-4.98,1.35-7.32,2.66-1.87,1.05-3.81,2.13-5.29,2.13-.12,0-.24,0-.35-.02-1.57-.2-3.32-1.87-5.01-3.49-2.03-1.94-4.14-3.95-6.78-4.46-.45-.09-.92-.13-1.41-.13-2.22,0-4.46.9-6.61,1.77-1.79.72-3.65,1.47-5.07,1.47-.3,0-.56-.03-.8-.09-1.52-.4-3.04-2.28-4.51-4.1-1.77-2.19-3.6-4.45-6.16-5.3-.78-.26-1.61-.38-2.55-.38-1.85,0-3.76.49-5.6.97-1.67.43-3.25.84-4.57.84-.57,0-1.04-.08-1.44-.24-1.46-.59-2.72-2.65-3.94-4.64-1.47-2.4-3-4.88-5.43-6.05-1.13-.54-2.46-.8-4.09-.8-1.34,0-2.73.17-4.07.34-1.27.16-2.47.31-3.56.31s-1.91-.16-2.49-.48c-1.37-.77-2.35-2.97-3.31-5.1-1.15-2.57-2.34-5.23-4.61-6.71-2.27-1.48-5.2-1.5-8.02-1.51-2.33-.01-4.73-.02-5.98-.96-1.25-.94-1.95-3.25-2.62-5.48-.81-2.7-1.65-5.49-3.71-7.25-2.06-1.76-4.96-2.15-7.75-2.53-2.31-.31-4.7-.64-5.81-1.72-1.12-1.09-1.51-3.47-1.88-5.77-.45-2.78-.92-5.66-2.74-7.67-1.81-2.01-4.63-2.77-7.35-3.51-2.25-.61-4.58-1.24-5.54-2.47-.97-1.22-1.04-3.63-1.11-5.96-.09-2.82-.18-5.74-1.71-7.97-1.53-2.23-4.22-3.35-6.82-4.44-2.15-.9-4.38-1.83-5.18-3.18-.8-1.34-.55-3.73-.32-6.05.29-2.81.58-5.71-.65-8.13-1.22-2.41-3.74-3.88-6.17-5.3-2.02-1.18-4.1-2.4-4.72-3.84-.61-1.43-.05-3.77.49-6.03.66-2.75,1.34-5.59.45-8.15-.89-2.54-3.18-4.34-5.39-6.07-1.84-1.44-3.75-2.93-4.16-4.45-.41-1.49.46-3.73,1.3-5.9,1.02-2.64,2.08-5.36,1.54-8.03-.54-2.63-2.56-4.72-4.52-6.73-1.63-1.68-3.32-3.41-3.53-4.98-.2-1.53.96-3.63,2.08-5.66,1.37-2.48,2.79-5.04,2.61-7.76-.18-2.68-1.91-5.01-3.58-7.26-1.4-1.88-2.84-3.83-2.84-5.42s1.44-3.53,2.84-5.42c1.67-2.25,3.4-4.59,3.58-7.26.18-2.72-1.24-5.28-2.61-7.76-1.12-2.03-2.28-4.13-2.08-5.66.21-1.57,1.9-3.3,3.53-4.98,1.96-2.01,3.99-4.1,4.52-6.73.54-2.66-.52-5.39-1.54-8.03-.84-2.17-1.71-4.41-1.3-5.9.42-1.52,2.32-3.01,4.16-4.45,2.22-1.73,4.51-3.53,5.39-6.07.89-2.56.21-5.4-.45-8.15-.54-2.26-1.1-4.6-.49-6.03.62-1.44,2.7-2.66,4.72-3.84,2.43-1.42,4.94-2.89,6.17-5.3,1.23-2.42.93-5.32.65-8.13-.24-2.32-.48-4.71.32-6.05.8-1.35,3.03-2.28,5.18-3.18,2.6-1.09,5.29-2.21,6.82-4.44,1.54-2.23,1.63-5.15,1.71-7.97.07-2.33.15-4.74,1.11-5.96.97-1.23,3.29-1.86,5.54-2.47,2.72-.74,5.54-1.5,7.35-3.51,1.81-2.01,2.28-4.89,2.74-7.67.38-2.3.76-4.68,1.88-5.77,1.12-1.09,3.5-1.41,5.81-1.72,2.8-.38,5.69-.77,7.75-2.53,2.06-1.76,2.9-4.55,3.71-7.25.67-2.23,1.36-4.55,2.62-5.48,1.25-.93,3.65-.94,5.98-.96,2.83-.01,5.75-.03,8.02-1.51,2.26-1.47,3.46-4.13,4.61-6.71.95-2.13,1.94-4.33,3.31-5.1.58-.33,1.39-.48,2.49-.48s2.29.15,3.56.31c1.34.17,2.72.34,4.07.34,1.63,0,2.96-.26,4.09-.8,2.43-1.17,3.96-3.65,5.43-6.05,1.22-1.99,2.48-4.05,3.94-4.64.39-.16.87-.24,1.44-.24,1.32,0,2.9.41,4.57.84,1.85.48,3.76.97,5.6.97.94,0,1.77-.12,2.55-.38,2.56-.85,4.39-3.11,6.16-5.3,1.47-1.82,2.99-3.7,4.51-4.1.24-.06.51-.09.8-.09,1.43,0,3.28.75,5.07,1.47,2.16.87,4.39,1.77,6.61,1.77.49,0,.96-.04,1.41-.13,2.64-.51,4.75-2.52,6.78-4.46,1.69-1.62,3.44-3.29,5.01-3.49.11-.01.23-.02.35-.02,1.49,0,3.42,1.08,5.29,2.13,2.34,1.31,4.75,2.66,7.32,2.66.15,0,.29,0,.44-.01,2.68-.17,5.02-1.9,7.28-3.57,1.88-1.39,3.83-2.83,5.42-2.83M203.77,0c-4.37,0-8.52,6.13-12.83,6.4-.11,0-.21,0-.32,0-4.08,0-8.58-4.79-12.61-4.79-.2,0-.4.01-.6.04-4.33.55-7.67,7.16-11.91,7.97-.34.06-.68.09-1.03.09-3.67,0-8.05-3.23-11.69-3.23-.45,0-.88.05-1.3.16-4.22,1.1-6.69,8.08-10.79,9.43-.6.2-1.25.28-1.93.28-3.18,0-7.01-1.82-10.18-1.82-.78,0-1.51.11-2.19.38-4.04,1.63-5.59,8.87-9.49,10.74-.94.45-2.04.61-3.22.61-2.43,0-5.2-.65-7.62-.65-1.29,0-2.48.18-3.47.74-3.79,2.13-4.39,9.51-8.02,11.88-3.64,2.37-10.64-.06-14.11,2.54-3.48,2.6-3.13,10-6.43,12.81-3.3,2.82-10.55,1.32-13.66,4.34-3.11,3.03-1.81,10.32-4.71,13.54-2.91,3.22-10.29,2.67-12.98,6.08-2.69,3.41-.44,10.46-2.9,14.04-2.46,3.57-9.85,4-12.07,7.73-2.22,3.73.94,10.42-1.03,14.3-1.96,3.86-9.23,5.26-10.94,9.27-1.7,3.98,2.33,10.2.89,14.31-1.43,4.09-8.44,6.45-9.6,10.65-1.15,4.17,3.68,9.78,2.81,14.06-.86,4.23-7.5,7.52-8.08,11.84-.57,4.28,4.96,9.19,4.67,13.55-.29,4.3-6.42,8.44-6.42,12.82s6.14,8.51,6.42,12.82c.29,4.36-5.24,9.28-4.67,13.55.58,4.33,7.22,7.61,8.08,11.84.87,4.27-3.95,9.89-2.81,14.06,1.15,4.2,8.17,6.56,9.6,10.65,1.43,4.11-2.59,10.32-.89,14.31,1.71,4,8.98,5.4,10.94,9.26,1.97,3.88-1.19,10.57,1.03,14.3,2.22,3.73,9.61,4.16,12.07,7.73,2.46,3.58.21,10.63,2.9,14.04,2.69,3.41,10.07,2.86,12.98,6.08,2.91,3.22,1.6,10.51,4.71,13.54,3.11,3.02,10.36,1.52,13.66,4.34,3.3,2.82,2.94,10.21,6.43,12.81,3.47,2.6,10.47.17,14.11,2.54,3.63,2.36,4.23,9.74,8.03,11.88.99.56,2.18.74,3.47.74,2.43,0,5.19-.65,7.62-.65,1.18,0,2.28.15,3.22.61,3.9,1.88,5.45,9.12,9.49,10.75.68.27,1.41.38,2.19.38,3.16,0,7-1.82,10.18-1.82.68,0,1.32.08,1.93.28,4.11,1.36,6.57,8.34,10.79,9.43.42.11.86.16,1.3.16,3.64,0,8.02-3.23,11.69-3.23.35,0,.69.03,1.03.09,4.24.82,7.58,7.42,11.91,7.97.2.03.4.04.6.04,4.03,0,8.54-4.79,12.61-4.79.11,0,.21,0,.32,0,4.3.27,8.45,6.4,12.83,6.4s8.52-6.13,12.83-6.4c.11,0,.21,0,.32,0,4.08,0,8.58,4.79,12.61,4.79.2,0,.4-.01.6-.04,4.33-.55,7.67-7.16,11.91-7.97.34-.06.68-.09,1.03-.09,3.67,0,8.05,3.23,11.69,3.23.45,0,.88-.05,1.3-.16,4.22-1.1,6.69-8.08,10.79-9.43.6-.2,1.25-.28,1.93-.28,3.18,0,7.01,1.82,10.18,1.82.78,0,1.51-.11,2.19-.38,4.04-1.63,5.59-8.87,9.49-10.74.94-.45,2.04-.61,3.22-.61,2.43,0,5.2.65,7.62.65,1.29,0,2.48-.18,3.47-.74,3.79-2.13,4.39-9.51,8.02-11.88,3.64-2.37,10.64.06,14.11-2.54,3.48-2.6,3.13-10,6.43-12.81,3.3-2.82,10.55-1.32,13.66-4.34,3.11-3.03,1.81-10.32,4.71-13.54,2.91-3.22,10.29-2.67,12.98-6.08,2.69-3.41.44-10.46,2.9-14.04,2.46-3.57,9.85-4,12.07-7.73,2.22-3.73-.94-10.42,1.03-14.3,1.96-3.86,9.23-5.26,10.94-9.27,1.7-3.98-2.33-10.2-.89-14.31,1.43-4.09,8.44-6.45,9.6-10.65,1.15-4.17-3.68-9.78-2.81-14.06.86-4.23,7.5-7.52,8.08-11.84.57-4.28-4.96-9.19-4.67-13.55.29-4.3,6.42-8.44,6.42-12.82s-6.14-8.51-6.42-12.82c-.29-4.36,5.24-9.28,4.67-13.55-.58-4.33-7.22-7.61-8.08-11.84-.87-4.27,3.95-9.89,2.81-14.06-1.15-4.2-8.17-6.56-9.6-10.65-1.43-4.11,2.59-10.32.89-14.31-1.71-4-8.98-5.4-10.94-9.26-1.97-3.88,1.19-10.57-1.03-14.3-2.22-3.73-9.61-4.16-12.07-7.73-2.46-3.58-.21-10.63-2.9-14.04-2.69-3.41-10.07-2.86-12.98-6.08-2.91-3.22-1.6-10.51-4.71-13.54-3.11-3.02-10.36-1.52-13.66-4.34-3.3-2.82-2.94-10.21-6.43-12.81-3.47-2.6-10.47-.17-14.11-2.54-3.63-2.36-4.23-9.74-8.03-11.88-.99-.56-2.18-.74-3.47-.74-2.43,0-5.19.65-7.62.65-1.18,0-2.28-.15-3.22-.61-3.9-1.88-5.45-9.12-9.49-10.75-.68-.27-1.41-.38-2.19-.38-3.16,0-7,1.82-10.18,1.82-.68,0-1.32-.08-1.93-.28-4.11-1.36-6.57-8.34-10.79-9.43-.42-.11-.86-.16-1.3-.16-3.64,0-8.02,3.23-11.69,3.23-.35,0-.69-.03-1.03-.09-4.24-.82-7.58-7.42-11.91-7.97-.2-.03-.4-.04-.6-.04-4.03,0-8.54,4.79-12.61,4.79-.11,0-.21,0-.32,0-4.3-.27-8.45-6.4-12.83-6.4h0Z"/>
</svg>