<?xml version="1.0" encoding="UTF-8"?>
<svg id="_图层_1" data-name="图层 1" xmlns="http://www.w3.org/2000/svg" viewBox="0 0 773.86 54.23">
  <defs>
    <style>
      .cls-1 {
        stroke: #000;
        stroke-miterlimit: 10;
      }

      .cls-1, .cls-2 {
        fill: #fff;
      }

      .cls-3 {
        letter-spacing: -.06em;
      }

      .cls-2 {
        font-family: TimesNewRomanPS-BoldMT, 'Times New Roman';
        font-size: 21px;
        font-weight: 700;
      }
    </style>
  </defs>
  <g>
    <rect x=".5" y="1" width="142.32" height="52.23" rx="8.67" ry="8.67"/>
    <path d="M134.16,1.5c4.5,0,8.16,3.66,8.16,8.16v34.9c0,4.5-3.66,8.16-8.16,8.16H9.16c-4.5,0-8.16-3.66-8.16-8.16V9.66C1,5.16,4.66,1.5,9.16,1.5h124.99M134.16.5H9.16C4.1.5,0,4.6,0,9.66v34.9c0,5.06,4.1,9.16,9.16,9.16h124.99c5.06,0,9.16-4.1,9.16-9.16V9.66c0-5.06-4.1-9.16-9.16-9.16h0Z"/>
  </g>
  <text class="cls-2" transform="translate(33.47 32.62)"><tspan x="0" y="0">SINEU</tspan><tspan class="cls-3" x="64.19" y="0">P</tspan></text>
  <text/>
  <g>
    <rect x="193.84" y="1" width="142.32" height="52.23" rx="8.67" ry="8.67"/>
    <path d="M327.5,1.5c4.5,0,8.16,3.66,8.16,8.16v34.9c0,4.5-3.66,8.16-8.16,8.16h-124.99c-4.5,0-8.16-3.66-8.16-8.16V9.66c0-4.5,3.66-8.16,8.16-8.16h124.99M327.5.5h-124.99c-5.06,0-9.16,4.1-9.16,9.16v34.9c0,5.06,4.1,9.16,9.16,9.16h124.99c5.06,0,9.16-4.1,9.16-9.16V9.66c0-5.06-4.1-9.16-9.16-9.16h0Z"/>
  </g>
  <text class="cls-2" transform="translate(226.81 32.62)"><tspan x="0" y="0">SINEU</tspan><tspan class="cls-3" x="64.19" y="0">P</tspan></text>
  <text/>
  <rect class="cls-1" x="143.32" y=".5" width="50.02" height="53.23" rx="10.65" ry="10.65"/>
  <rect class="cls-1" x="336.66" y=".5" width="50.02" height="53.23" rx="10.65" ry="10.65"/>
  <g>
    <rect x="387.18" y="1" width="142.32" height="52.23" rx="8.67" ry="8.67"/>
    <path d="M520.84,1.5c4.5,0,8.16,3.66,8.16,8.16v34.9c0,4.5-3.66,8.16-8.16,8.16h-124.99c-4.5,0-8.16-3.66-8.16-8.16V9.66c0-4.5,3.66-8.16,8.16-8.16h124.99M520.84.5h-124.99c-5.06,0-9.16,4.1-9.16,9.16v34.9c0,5.06,4.1,9.16,9.16,9.16h124.99c5.06,0,9.16-4.1,9.16-9.16V9.66c0-5.06-4.1-9.16-9.16-9.16h0Z"/>
  </g>
  <text class="cls-2" transform="translate(420.15 32.62)"><tspan x="0" y="0">SINEU</tspan><tspan class="cls-3" x="64.19" y="0">P</tspan></text>
  <rect class="cls-1" x="530" y=".5" width="50.02" height="53.23" rx="10.65" ry="10.65"/>
  <g>
    <rect x="580.52" y="1" width="142.32" height="52.23" rx="8.67" ry="8.67"/>
    <path d="M714.18,1.5c4.5,0,8.16,3.66,8.16,8.16v34.9c0,4.5-3.66,8.16-8.16,8.16h-124.99c-4.5,0-8.16-3.66-8.16-8.16V9.66c0-4.5,3.66-8.16,8.16-8.16h124.99M714.18.5h-124.99c-5.06,0-9.16,4.1-9.16,9.16v34.9c0,5.06,4.1,9.16,9.16,9.16h124.99c5.06,0,9.16-4.1,9.16-9.16V9.66c0-5.06-4.1-9.16-9.16-9.16h0Z"/>
  </g>
  <text class="cls-2" transform="translate(613.49 32.62)"><tspan x="0" y="0">SINEU</tspan><tspan class="cls-3" x="64.19" y="0">P</tspan></text>
  <rect class="cls-1" x="723.34" y=".5" width="50.02" height="53.23" rx="10.65" ry="10.65"/>
</svg>